<svg xmlns="http://www.w3.org/2000/svg" width="15" height="15" viewBox="0 0 15 15">
  <defs>
    <style>
      .cls-1 {
        fill: #fff;
        fill-rule: evenodd;
      }
    </style>
  </defs>
  <path id="Forma_1" data-name="Forma 1" class="cls-1" d="M1464.22,4294.55a2.225,2.225,0,1,0,2.22,2.23A2.232,2.232,0,0,0,1464.22,4294.55Zm-1.99-5.65a0.235,0.235,0,0,0-.24.23v2.83a0.242,0.242,0,0,0,.24.23,6.592,6.592,0,0,1,6.58,6.58,0.233,0.233,0,0,0,.23.23h2.83a0.242,0.242,0,0,0,.24-0.23l-0.02-.08A9.878,9.878,0,0,0,1462.23,4288.9Zm14.76,9.79a14.78,14.78,0,0,0-14.76-14.69,0.235,0.235,0,0,0-.24.23v2.91a0.235,0.235,0,0,0,.24.23,11.406,11.406,0,0,1,11.39,11.4,0.24,0.24,0,0,0,.23.23h2.92a0.242,0.242,0,0,0,.24-0.23Z" transform="translate(-1462 -4284)"/>
</svg>
