<svg xmlns="http://www.w3.org/2000/svg" width="19" height="15" viewBox="0 0 19 15">
  <defs>
    <style>
      .cls-1 {
        fill: #fff;
        fill-rule: evenodd;
      }
    </style>
  </defs>
  <path id="Forma_1" data-name="Forma 1" class="cls-1" d="M18.476,0.277A7.992,7.992,0,0,1,16,1.2,3.938,3.938,0,0,0,13.155,0a3.844,3.844,0,0,0-3.9,3.787,3.708,3.708,0,0,0,.1.862A11.174,11.174,0,0,1,1.323.692,3.682,3.682,0,0,0,.8,2.6,3.76,3.76,0,0,0,2.53,5.748,3.984,3.984,0,0,1,.765,5.273V5.32A3.821,3.821,0,0,0,3.891,9.034,4,4,0,0,1,2.13,9.1,3.892,3.892,0,0,0,5.77,11.73,7.969,7.969,0,0,1,.93,13.35,8.417,8.417,0,0,1,0,13.3,11.272,11.272,0,0,0,5.975,15,10.851,10.851,0,0,0,17.065,4.223l-0.013-.49A7.727,7.727,0,0,0,19,1.774a7.956,7.956,0,0,1-2.238.6A3.829,3.829,0,0,0,18.476.277Z"/>
</svg>
