<svg xmlns="http://www.w3.org/2000/svg" width="16" height="17.32" viewBox="0 0 16 17.32">
  <defs>
    <style>
      .cls-1 {
        fill-rule: evenodd;
      }
    </style>
  </defs>
  <path id="Forma_1" data-name="Forma 1" class="cls-1" d="M486.715,2757.49h-2v-0.87a0.288,0.288,0,0,0-.286-0.29h-2a0.288,0.288,0,0,0-.286.29v0.87h-6.286v-0.87a0.288,0.288,0,0,0-.286-0.29h-2a0.288,0.288,0,0,0-.286.29v0.87h-2a0.287,0.287,0,0,0-.285.29v15.6a0.287,0.287,0,0,0,.285.29h15.43a0.287,0.287,0,0,0,.285-0.29v-15.6A0.287,0.287,0,0,0,486.715,2757.49Zm-4-.58h1.429v1.73h-1.429v-1.73Zm-8.857,0h1.428v1.73h-1.428v-1.73Zm-2.286,1.16h1.714v0.86a0.288,0.288,0,0,0,.286.29h2a0.288,0.288,0,0,0,.286-0.29v-0.86h6.286v0.86a0.288,0.288,0,0,0,.286.29h2a0.288,0.288,0,0,0,.286-0.29v-0.86h1.714v2.6H471.571v-2.6Zm0,15.02v-11.85h14.858v11.85H471.571Zm9.715-10.11h-7.715v8.38h10.858v-8.38h-3.143Zm-2,.57h2v2.03h-2v-2.03Zm2,4.63h-2v-2.03h2v2.03Zm-4.572-2.03h2v2.03h-2v-2.03Zm0-2.6h2v2.03h-2v-2.03Zm-2.571,0h2v2.03h-2v-2.03Zm0,2.6h2v2.03h-2v-2.03Zm2,4.63h-2v-2.02h2v2.02Zm2.571,0h-2v-2.02h2v2.02Zm2.572,0h-2v-2.02h2v2.02Zm2.571,0h-2v-2.02h2v2.02Zm0-2.6h-2v-2.03h2v2.03Zm0-4.63v2.03h-2v-2.03h2Z" transform="translate(-471 -2756.34)"/>
</svg>
